<svg xmlns="http://www.w3.org/2000/svg" viewBox="0 0 512 512" fill="currentColor">
  <!-- Left brain half (organic) -->
  <path d="M233.5 22.5c-40.3 3.5-74.8 21.2-102.5 52.8-27.7 31.6-41.6 68.9-41.6 111.8 0 15.2 2.1 30 6.2 44.5-18.4 20.3-27.6 44.3-27.6 72.1 0 26.7 8.5 50.2 25.4 70.5-4.3 14.8-6.5 29.5-6.5 44.1 0 31 10.8 58 32.3 81 21.5 23 48.2 36 80.1 39.1 6.1.6 12.2.9 18.2.9 15.4 0 30.1-2.8 38.5-5.2V22.5h-22.5z"/>
  <!-- Right brain half (circuit) -->
  <path d="M278.5 22.5v511.8c8.4 2.4 23.1 5.2 38.5 5.2 6 0 12.1-.3 18.2-.9 31.9-3.1 58.6-16.1 80.1-39.1 21.5-23 32.3-50 32.3-81 0-14.6-2.2-29.3-6.5-44.1 16.9-20.3 25.4-43.8 25.4-70.5 0-27.8-9.2-51.8-27.6-72.1 4.1-14.5 6.2-29.3 6.2-44.5 0-42.9-13.9-80.2-41.6-111.8-27.7-31.6-62.2-49.3-102.5-52.8H278.5z"/>
  <!-- Circuit lines on right half -->
  <g fill="none" stroke="currentColor" stroke-width="2" opacity="0.15">
    <!-- Will be overridden by the filled paths -->
  </g>
  <!-- Circuit details - dots and lines on right side -->
  <g>
    <!-- Horizontal circuit lines -->
    <rect x="290" y="160" width="90" height="4" rx="2" fill="white" opacity="0.9"/>
    <rect x="290" y="220" width="70" height="4" rx="2" fill="white" opacity="0.9"/>
    <rect x="290" y="280" width="95" height="4" rx="2" fill="white" opacity="0.9"/>
    <rect x="290" y="340" width="60" height="4" rx="2" fill="white" opacity="0.9"/>
    <rect x="290" y="400" width="80" height="4" rx="2" fill="white" opacity="0.9"/>
    <!-- Vertical branches -->
    <rect x="340" y="160" width="4" height="60" rx="2" fill="white" opacity="0.9"/>
    <rect x="370" y="220" width="4" height="60" rx="2" fill="white" opacity="0.9"/>
    <rect x="320" y="280" width="4" height="60" rx="2" fill="white" opacity="0.9"/>
    <rect x="360" y="340" width="4" height="60" rx="2" fill="white" opacity="0.9"/>
    <!-- Circuit dots (nodes) -->
    <circle cx="384" cy="162" r="8" fill="white" opacity="0.9"/>
    <circle cx="364" cy="222" r="8" fill="white" opacity="0.9"/>
    <circle cx="389" cy="282" r="8" fill="white" opacity="0.9"/>
    <circle cx="354" cy="342" r="8" fill="white" opacity="0.9"/>
    <circle cx="374" cy="402" r="8" fill="white" opacity="0.9"/>
    <circle cx="342" cy="222" r="6" fill="white" opacity="0.9"/>
    <circle cx="372" cy="282" r="6" fill="white" opacity="0.9"/>
    <circle cx="322" cy="342" r="6" fill="white" opacity="0.9"/>
    <circle cx="362" cy="402" r="6" fill="white" opacity="0.9"/>
  </g>
  <!-- Center dividing line -->
  <rect x="254" y="40" width="4" height="440" rx="2" fill="white" opacity="0.3"/>
</svg>
